<?xml version="1.0" encoding="UTF-8"?>
<svg width="512" height="512" viewBox="0 0 512 512" xmlns="http://www.w3.org/2000/svg">
  <!-- Background - white with subtle border -->
  <rect width="512" height="512" rx="100" fill="#ffffff"/>
  <rect width="512" height="512" rx="100" fill="none" stroke="#000000" stroke-width="8"/>
  
  <!-- Database stack (3 layers) - black outline -->
  <!-- Bottom layer -->
  <ellipse cx="256" cy="340" rx="100" ry="30" fill="none" stroke="#000000" stroke-width="8"/>
  <path d="M156 280 v60 c0 16.5 45 30 100 30 s100 -13.5 100 -30 v-60" fill="none" stroke="#000000" stroke-width="8"/>
  
  <!-- Middle layer -->
  <ellipse cx="256" cy="280" rx="100" ry="30" fill="none" stroke="#000000" stroke-width="8"/>
  <path d="M156 220 v60 c0 16.5 45 30 100 30 s100 -13.5 100 -30 v-60" fill="none" stroke="#000000" stroke-width="8"/>
  
  <!-- Top layer -->
  <ellipse cx="256" cy="220" rx="100" ry="30" fill="none" stroke="#000000" stroke-width="8"/>
  <path d="M156 220 v0 c0 16.5 45 30 100 30 s100 -13.5 100 -30 v0" fill="none" stroke="#000000" stroke-width="8"/>
  
  <!-- Blade/sword icon - black outline -->
  <g transform="translate(320, 160) rotate(45)">
    <path d="M0 0 L60 0 L70 10 L10 70 L0 60 Z" fill="none" stroke="#000000" stroke-width="6"/>
    <path d="M10 70 L0 80 L10 90 L20 80 Z" fill="#000000"/>
  </g>
</svg>