<svg width="128" height="128" xmlns="http://www.w3.org/2000/svg">
  <defs>
    <linearGradient id="bg" x1="0%" y1="0%" x2="100%" y2="100%">
      <stop offset="0%" style="stop-color:#00758F;stop-opacity:1" />
      <stop offset="100%" style="stop-color:#00546B;stop-opacity:1" />
    </linearGradient>
  </defs>
  <!-- Background circle -->
  <circle cx="64" cy="64" r="60" fill="url(#bg)"/>
  <!-- MySQL dolphin silhouette simplified -->
  <path fill="#FFFFFF" d="M95 45c-2-1-5-1-7 0-3 1-5 4-6 7-1-2-2-4-4-5-2-1-5-1-7 1-2 2-3 5-2 8 1 2 3 4 5 5 3 1 6 1 8-1 1-1 2-2 2-4 0 2 1 4 3 5 2 1 4 1 6 0 2-1 3-3 3-5 0-3-1-5-3-7-2-1-4-2-6-2-3 0-5 2-6 4-1-2-1-4 0-6 1-1 3-2 5-1 2 0 4 2 5 4 1 2 1 4 0 6 1 2 2 3 4 3zM40 55c-2 0-4 1-5 3-1 2-1 4 0 6 1 1 3 2 5 2 2 0 4-1 5-3 1-2 1-4 0-6-1-1-3-2-5-2zm0 3c1 0 2 0 2 1 1 1 1 2 0 3 0 1-1 1-2 1-1 0-2 0-2-1-1-1-1-2 0-3 0-1 1-1 2-1z"/>
  <!-- SQL text -->
  <text x="64" y="105" font-family="Arial, sans-serif" font-size="20" font-weight="bold" fill="#FFFFFF" text-anchor="middle">MySQL</text>
</svg>
